<?xml version="1.0" encoding="UTF-8"?>
<svg id="Layer_1" xmlns="http://www.w3.org/2000/svg" version="1.1" viewBox="0 0 841.89 595.28">
  <!-- Generator: Adobe Illustrator 29.4.0, SVG Export Plug-In . SVG Version: 2.1.0 Build 152)  -->
  <defs>
    <style>
      .st0 {
        fill: #004994;
      }
    </style>
  </defs>
  <g>
    <path class="st0" d="M331.08,229.32l-13.57,39.49h-10.33l-13.57-39.49h10.28l8.58,26.76,8.59-26.76h10.02Z"/>
    <path class="st0" d="M334.74,268.81v-39.49h26.69v7.53h-16.83v7.81h9.3v7.54h-9.3v9.08h16.83v7.53h-26.69Z"/>
    <path class="st0" d="M442.78,249.1c0,3.68-.8,6.97-2.41,9.88-1.61,2.91-3.65,5.14-6.1,6.7-2.05,1.32-4.28,2.18-6.69,2.56-2.41.38-4.98.57-7.7.57h-12.35v-39.49h12.24c2.77,0,5.37.17,7.79.53,2.42.36,4.7,1.22,6.82,2.57,2.59,1.67,4.64,3.91,6.15,6.73,1.5,2.82,2.25,6.14,2.25,9.96ZM432.61,249.02c0-2.59-.44-4.82-1.34-6.67-.89-1.85-2.26-3.29-4.12-4.33-1.34-.75-2.75-1.15-4.23-1.23-1.48-.07-3.24-.1-5.29-.1h-.19v24.72h.19c2.23,0,4.1-.04,5.63-.12,1.53-.08,2.99-.55,4.36-1.42,1.62-1.03,2.86-2.44,3.71-4.24.85-1.8,1.27-4,1.27-6.61Z"/>
    <path class="st0" d="M448.64,268.81v-39.49h26.69v7.53h-16.83v7.81h9.31v7.54h-9.31v9.08h16.83v7.53h-26.69Z"/>
    <path class="st0" d="M495.36,247.14c1.38,0,1.84-.08,2.8-.25.96-.16,1.78-.52,2.46-1.07.63-.49,1.1-1.09,1.42-1.78.3-.69.46-1.59.46-2.7,0-.99-.19-1.85-.57-2.55-.38-.72-1.01-1.28-1.89-1.67-.62-.26-1.31-.43-2.07-.5-.76-.07-1.71-.11-2.84-.11h-3.31v32.22h-9.86v-39.5h15.87c2.2,0,4.1.15,5.73.41,1.63.28,3.13.85,4.51,1.71,1.41.9,2.53,2.04,3.37,3.44.83,1.38,1.24,3.15,1.24,5.28,0,3.03-.68,5.48-2.04,7.36-1.36,1.88-3.18,3.38-5.46,4.49l13.28,16.79h-12.09l-11-14.48v-7.11Z"/>
    <path class="st0" d="M381.53,247.22c1.38,0,1.84-.09,2.8-.25.96-.17,1.78-.53,2.45-1.08.64-.49,1.11-1.09,1.42-1.78.31-.69.46-1.59.46-2.7,0-1-.19-1.85-.57-2.57-.38-.71-1.01-1.26-1.9-1.66-.62-.26-1.31-.43-2.07-.5-.76-.07-1.7-.1-2.84-.1h-3.31v32.22h-9.86v-39.49h15.87c2.19,0,4.1.13,5.72.41,1.62.27,3.13.85,4.5,1.71,1.42.9,2.54,2.05,3.37,3.44.83,1.39,1.25,3.16,1.25,5.29,0,3.02-.68,5.48-2.04,7.36-1.36,1.88-3.18,3.38-5.46,4.5l13.28,16.79h-12.09l-11-14.48v-7.11Z"/>
  </g>
  <polygon class="st0" points="526 276.62 299.79 276.62 299.79 284.27 534.33 284.27 534.34 266.73 562.57 284.25 577.08 284.25 526 252.55 526 276.62"/>
</svg>